PathFileType	4	(X/Y/Z)	./resultDataOpenSim/trcMotMarkerGrf/sub10/qtm-03-05.trc
DataRate	CameraRate	NumFrames	NumMarkers	Units	OrigDataRate	OrigDataStartFrame	OrigNumFrames
250.000000	250.000000	15	24	m	250.000000	440	502
Frame#	Time	L.Toe.Tip			R.Toe.Tip			L.Ankle.Lat			R.Ankle.Lat			L.Ankle.Med			R.Ankle.Med			L.Heel			R.Heel			L.Knee.Lat			R.Knee.Lat			L.Knee.Med			R.Knee.Med			L.Thigh.Upper			R.Thigh.Upper			L.ASIS			R.ASIS			V.Sacral			L.Acromium			R.Acromium			C7			L.Elbow			R.Elbow			L.Wrist.Lat			R.Wrist.Lat
		X1	Y1	Z1	X2	Y2	Z2	X3	Y3	Z3	X4	Y4	Z4	X5	Y5	Z5	X6	Y6	Z6	X7	Y7	Z7	X8	Y8	Z8	X9	Y9	Z9	X10	Y10	Z10	X11	Y11	Z11	X12	Y12	Z12	X13	Y13	Z13	X14	Y14	Z14	X15	Y15	Z15	X16	Y16	Z16	X17	Y17	Z17	X18	Y18	Z18	X19	Y19	Z19	X20	Y20	Z20	X21	Y21	Z21	X22	Y22	Z22	X23	Y23	Z23	X24	Y24	Z24

440	1.756	1.6222815	0.11473452	-0.0020961834	0.89285861	0.038883625	0.13761276	1.4931408	0.081106353	-0.036644096	0.76016758	0.083416655	0.17274661	1.4917238	0.1051903	0.042883255	0.7873686	0.10238616	0.088686863	1.4474984	0.027292063	0.0077692831	0.70442179	0.073114626	0.12702621	1.3471502	0.44773201	-0.059845122	0.97494119	0.42426043	0.20629657	1.3554085	0.42112017	0.058762242	1.0057035	0.4217229	0.081117816	1.2040552	0.79822993	-0.10842203	1.0541374	0.82717176	0.25514903	1.2304904	0.90988227	-0.024340378	1.1531101	0.91416821	0.21493048	1.0024756	0.90936491	0.026441905	1.1245996	1.3814097	-0.083413168	1.0905452	1.3749953	0.23892464	1.0273442	1.4034623	0.065162022	0.9499443	1.1005958	-0.17022684	1.1203016	1.02269	0.33908453	0.96735122	0.86742084	-0.22928167	1.3666287	0.97314944	0.33680225
441	1.76	1.626376	0.11158432	-0.0027373118	0.89317811	0.038950054	0.13766375	1.4964883	0.079291058	-0.03673724	0.76118154	0.085594686	0.1729014	1.4953264	0.10323869	0.042942053	0.78875337	0.10406388	0.088978758	1.4503775	0.025722878	0.0077042897	0.70544515	0.075962805	0.12730815	1.3542961	0.4474719	-0.059823955	0.97939919	0.42400729	0.20622255	1.3628528	0.42111699	0.058752288	1.0106904	0.42098552	0.08118508	1.2106423	0.79802425	-0.10868139	1.0596941	0.82660745	0.25451852	1.2372595	0.90905367	-0.02422294	1.1593255	0.91317898	0.21500568	1.0091616	0.90882003	0.025617034	1.1304493	1.3807842	-0.084257224	1.0963331	1.3744833	0.23812858	1.0331951	1.4027398	0.064252112	0.9558628	1.0998217	-0.17016365	1.127158	1.0223363	0.33778833	0.97252425	0.86678848	-0.22967946	1.3731877	0.9723764	0.33574411
442	1.764	1.6297509	0.10832439	-0.0031638785	0.89352249	0.038999206	0.13774453	1.4993779	0.077318544	-0.036768573	0.76238245	0.08779246	0.17315992	1.4985188	0.10115032	0.043015549	0.7902431	0.10581941	0.089303001	1.4526321	0.024299312	0.0076662966	0.70657681	0.078925686	0.12761296	1.3614243	0.44718647	-0.059820443	0.98397246	0.42376963	0.20616374	1.3703862	0.42115742	0.058762122	1.0157815	0.42025391	0.081278782	1.2172118	0.79787908	-0.10896252	1.0654161	0.82607976	0.25390516	1.2440785	0.90830298	-0.024140214	1.165745	0.91229138	0.21494554	1.0159262	0.90834605	0.024823471	1.136327	1.3802031	-0.085110691	1.1021672	1.3740332	0.23729212	1.0390857	1.4020441	0.063313702	0.96190279	1.0990415	-0.1701006	1.134039	1.0221027	0.33650836	0.9778457	0.86615358	-0.23005448	1.3796585	0.97158543	0.33467612
443	1.768	1.6321818	0.1050185	-0.003185359	0.89389727	0.039037127	0.13784455	1.5018058	0.075177764	-0.036677054	0.76376969	0.090008006	0.17346302	1.5013372	0.098958376	0.043111329	0.79184721	0.10764547	0.089651126	1.4542471	0.02317249	0.0076581082	0.70782392	0.081995838	0.12792529	1.3685126	0.44685033	-0.059838752	0.98866942	0.42355192	0.20612468	1.3779857	0.42122981	0.058780664	1.0209749	0.41954006	0.081400059	1.2237837	0.79777126	-0.1092662	1.0712867	0.82556774	0.25329715	1.2509416	0.90763263	-0.02410011	1.1723036	0.91145332	0.21481633	1.0227648	0.90794784	0.024078734	1.1422292	1.3796621	-0.08598378	1.1081417	1.3736074	0.23637406	1.045017	1.4013669	0.062348765	0.96806978	1.098267	-0.1700537	1.1409409	1.0219958	0.33524677	0.98332343	0.86551038	-0.23040912	1.3860382	0.97077704	0.3335967
444	1.772	1.6340785	0.10143882	-0.0030641325	0.89430181	0.039066668	0.13794966	1.5038623	0.072947319	-0.036529009	0.76534182	0.092231008	0.17376246	1.5038655	0.096730446	0.043230565	0.79357354	0.10953467	0.09001677	1.4553317	0.022392903	0.0076983566	0.70918825	0.085166762	0.1282335	1.3755366	0.44643881	-0.059883372	0.99349531	0.42335479	0.20611025	1.3856037	0.42131256	0.058788168	1.0262658	0.41885612	0.081546876	1.2303745	0.79768542	-0.10958934	1.077303	0.82505882	0.2526913	1.2578382	0.90704206	-0.024106686	1.1789544	0.91064077	0.21464736	1.029651	0.90762048	0.023375305	1.1481494	1.3791544	-0.086884644	1.1143911	1.3731555	0.23532054	1.0509804	1.4007052	0.061363869	0.97435393	1.0975307	-0.16997373	1.1477612	1.0219607	0.3339211	0.98896666	0.86485469	-0.23074568	1.392324	0.96995277	0.33250929
445	1.776	1.6362032	0.097160413	-0.0032759821	0.8947236	0.039082605	0.13804442	1.5057492	0.070800879	-0.036476572	0.7670786	0.094469869	0.17404777	1.5062791	0.094597933	0.043364571	0.7954317	0.11148683	0.090397489	1.4561105	0.021977986	0.0078308698	0.7106715	0.088441346	0.12852826	1.3824719	0.44593976	-0.059956504	0.99844973	0.4231791	0.20611853	1.3931821	0.42136986	0.058758847	1.0316525	0.41820847	0.081707771	1.236994	0.79761258	-0.10992834	1.0834653	0.8245449	0.25208034	1.2647483	0.90653565	-0.024159747	1.185685	0.90985087	0.21444679	1.036546	0.90735891	0.022698114	1.1540864	1.378676	-0.087810893	1.1209382	1.3726631	0.23412326	1.0569608	1.4000618	0.060368591	0.98074331	1.0968806	-0.16974839	1.1543787	1.0219201	0.33243155	0.99478056	0.86418325	-0.23106799	1.398507	0.96911524	0.33142253
446	1.78	1.6390389	0.091882793	-0.0039918618	0.89514656	0.03908009	0.13811359	1.5077103	0.068969915	-0.0366059	0.76891777	0.096778538	0.17434082	1.5088342	0.092753988	0.043505274	0.79743818	0.11351052	0.090795897	1.4568544	0.022029104	0.0081188991	0.71229157	0.091839008	0.12879904	1.3892949	0.4453684	-0.06005831	1.0035338	0.42302854	0.20614436	1.4006789	0.42136564	0.05867071	1.0371432	0.41759557	0.081860353	1.2436493	0.79755408	-0.11028946	1.0897718	0.82401827	0.25145596	1.271632	0.90613411	-0.024254978	1.1925033	0.90908581	0.21421734	1.0434206	0.90717191	0.022048552	1.1600446	1.3782281	-0.088758523	1.127577	1.3722012	0.23286923	1.0629446	1.3994495	0.059367652	0.98723546	1.0963266	-0.16936498	1.1607523	1.0218277	0.33074757	1.0007645	0.86349054	-0.2313802	1.4045656	0.96826641	0.33034754
447	1.784	1.64256	0.085741259	-0.0049379521	0.89557149	0.039067012	0.13815272	1.5099405	0.067652314	-0.036847057	0.77080169	0.099223473	0.17466393	1.511763	0.091380731	0.043659071	0.79961561	0.11561497	0.091218922	1.4578142	0.022643703	0.0086346656	0.71408504	0.095381827	0.12903801	1.3959857	0.44477514	-0.060194922	1.0087552	0.42290496	0.20618512	1.4080721	0.42128351	0.058513526	1.0427571	0.41700897	0.081986123	1.2503478	0.79752612	-0.11068925	1.0962128	0.82346733	0.25082857	1.2784359	0.90587231	-0.024389519	1.1994044	0.90834588	0.21396043	1.0502625	0.90706676	0.021440915	1.1660268	1.3778131	-0.089733168	1.1340463	1.3718791	0.23166966	1.0689242	1.3988864	0.058355263	0.99379113	1.0957947	-0.1690124	1.1669076	1.0216617	0.3288975	1.0069137	0.86277128	-0.23168177	1.4104727	0.96740578	0.32929729
448	1.788	1.6464457	0.079366187	-0.0057281291	0.89601962	0.039058168	0.13817664	1.5125316	0.066870955	-0.037048099	0.77273616	0.10182742	0.17501809	1.515138	0.090539278	0.043841354	0.80198154	0.11779794	0.091674583	1.459121	0.02373687	0.0093839756	0.71608485	0.099074076	0.12925092	1.4025372	0.44423701	-0.060384938	1.0141155	0.42280561	0.20623335	1.4153442	0.42114357	0.05828605	1.0485117	0.4164359	0.08209211	1.2570996	0.79755969	-0.1111422	1.1027652	0.82287614	0.25025285	1.2851246	0.90577112	-0.024571878	1.2063706	0.90763229	0.21367392	1.0570696	0.90703466	0.02088471	1.1720321	1.3774338	-0.090744272	1.14029	1.3717431	0.230549	1.0748955	1.3983814	0.057323776	1.0003285	1.0951854	-0.1689003	1.1728925	1.0214169	0.32692342	1.0132201	0.86202502	-0.23196619	1.4162252	0.96652797	0.32827775
449	1.792	1.6503396	0.073530133	-0.0062035069	0.89650947	0.039053169	0.13822201	1.5154395	0.066434454	-0.037125122	0.77476468	0.10456228	0.1753944	1.5188277	0.090121139	0.044047992	0.80454077	0.12003887	0.09216947	1.4606914	0.025076569	0.010190554	0.71830152	0.10290753	0.12945897	1.4089679	0.44383868	-0.060651033	1.0196024	0.42273106	0.20627233	1.422474	0.4210112	0.057986688	1.0544121	0.4158651	0.082204653	1.2639187	0.7976975	-0.11164618	1.1094058	0.82222401	0.24982709	1.291714	0.90580933	-0.024818299	1.2133881	0.90695151	0.21335	1.0638476	0.90706594	0.020386593	1.1780554	1.3770937	-0.09179585	1.1464224	1.3717658	0.22946525	1.0808587	1.3979342	0.056269742	1.0068051	1.0944614	-0.1690811	1.1787931	1.0211366	0.3248846	1.0196773	0.86125587	-0.2322252	1.4218655	0.96562756	0.32727812
450	1.796	1.6539544	0.068627471	-0.0064139281	0.8970362	0.039027978	0.13834469	1.5184764	0.066090271	-0.037115601	0.77691207	0.10738293	0.17578554	1.5226085	0.089929209	0.044234039	0.80729592	0.12231207	0.092707978	1.4623114	0.026458874	0.010771953	0.72073061	0.10687495	0.12968277	1.415329	0.44365274	-0.061005224	1.0252135	0.42268844	0.20628824	1.4294369	0.42098081	0.057614218	1.0604601	0.41529327	0.082341586	1.2708231	0.7979857	-0.11218065	1.1161766	0.82148557	0.24961161	1.2982589	0.90594366	-0.025138179	1.2204535	0.9063145	0.21297643	1.0706024	0.90716179	0.019961536	1.1840916	1.3767947	-0.092884602	1.1525493	1.3719056	0.22839036	1.0868258	1.3975503	0.055189386	1.0132449	1.0936434	-0.16948997	1.1847198	1.0209109	0.3228618	1.0262866	0.86046888	-0.2324536	1.4274467	0.96470533	0.32628126
451	1.8	1.6570964	0.064506358	-0.0064263545	0.89757959	0.038957842	0.13857745	1.5213901	0.065703235	-0.03711579	0.77918564	0.11026359	0.17617804	1.5263472	0.089825871	0.044334719	0.81025989	0.12461146	0.093287705	1.4638313	0.027783928	0.010983598	0.72337608	0.11096935	0.12991577	1.4216881	0.44372354	-0.061440427	1.0309812	0.42267647	0.20628222	1.4362227	0.42113822	0.057184161	1.0666703	0.41472692	0.082506048	1.2778336	0.79846157	-0.11272231	1.1232493	0.82063906	0.24952528	1.3048029	0.90615672	-0.025532863	1.2275769	0.9057288	0.21254035	1.0773384	0.90732496	0.019626037	1.1901369	1.3765389	-0.094000511	1.1587158	1.3721321	0.22732261	1.0928243	1.3972509	0.054077405	1.0197059	1.0927903	-0.16997326	1.1907305	1.0208114	0.32091975	1.0330535	0.85966881	-0.23264968	1.4329796	0.96376617	0.32528222
452	1.804	1.6596992	0.060768628	-0.0062540882	0.89813535	0.038852526	0.13886419	1.5239994	0.065285383	-0.037193602	0.78161557	0.1132176	0.17654223	1.5299989	0.089775015	0.044323436	0.81345296	0.12695348	0.093891193	1.4652155	0.029025151	0.010871685	0.72626937	0.11517974	0.13010595	1.4280981	0.44406114	-0.061927261	1.0369535	0.4226836	0.20627411	1.4428645	0.42152941	0.056742361	1.0730686	0.41417792	0.082703154	1.2849667	0.79914171	-0.11325612	1.1307894	0.81969036	0.24940548	1.311359	0.90646441	-0.026001273	1.2347758	0.90519044	0.21203348	1.0840611	0.90755577	0.019375527	1.1961858	1.3763331	-0.095131035	1.1649383	1.3724288	0.22626606	1.0988825	1.3970618	0.052931	1.0262658	1.0919976	-0.17032158	1.1967823	1.0208419	0.31906372	1.0399771	0.85886375	-0.23281057	1.4384384	0.96281574	0.32428802
453	1.808	1.6618467	0.05715823	-0.0058635703	0.89872627	0.038752473	0.13908489	1.526264	0.064907608	-0.037330656	0.78426872	0.11627391	0.1768331	1.5333934	0.089742983	0.044258775	0.81690132	0.12935147	0.094488436	1.466463	0.030174004	0.010530002	0.7294709	0.11948949	0.13016736	1.4345812	0.44464437	-0.06241902	1.0431572	0.42271121	0.20629756	1.4494228	0.42215311	0.056353439	1.0796853	0.41365373	0.082946593	1.2922177	0.80001661	-0.11377078	1.1386821	0.81870874	0.24917583	1.3179314	0.90688342	-0.026534579	1.2420612	0.90468899	0.21145493	1.0907758	0.90785555	0.019179045	1.2022343	1.3761838	-0.096263861	1.1712307	1.3727933	0.22522215	1.105012	1.3969969	0.051756263	1.0329768	1.0913207	-0.17049875	1.202749	1.02095	0.31722859	1.0470491	0.85806687	-0.23293186	1.4437967	0.96185928	0.323308
454	1.812	1.6637237	0.053700152	-0.0051954148	0.8993732	0.038683474	0.13916519	1.5282517	0.064615788	-0.037425827	0.78722681	0.11944289	0.17700681	1.5362458	0.089662034	0.044266563	0.82064815	0.13179041	0.095056985	1.4675696	0.031211793	0.010032762	0.73304752	0.12388609	0.13002576	1.4411371	0.445426	-0.062868337	1.0495952	0.42277456	0.20637936	1.4559287	0.42297565	0.05607156	1.086548	0.41314888	0.083251101	1.2995512	0.80106093	-0.11425613	1.1465812	0.81779977	0.24886775	1.3245275	0.90740816	-0.027113716	1.2494187	0.90422013	0.21081005	1.0974952	0.90822349	0.019010322	1.2082821	1.3760891	-0.097385316	1.1775979	1.3732243	0.22418988	1.111212	1.3970521	0.050571118	1.0398104	1.0907103	-0.17069696	1.2084897	1.0210719	0.31531978	1.0542656	0.85729041	-0.23301282	1.4490381	0.9608986	0.32234896
